<mxfile host="app.diagrams.net" modified="2024-03-30T23:13:00.918Z" agent="Mozilla/5.0 (Macintosh; Intel Mac OS X 10_15_7) AppleWebKit/537.36 (KHTML, like Gecko) Chrome/123.0.0.0 Safari/537.36" version="24.2.1" etag="nn9zBUibS1Zmw_FbtUhh" type="github">
  <diagram name="Sayfa -1" id="zc9gHO1T4C5FmL_ZiZXt">
    <mxGraphModel>
      <root>
        <mxCell id="0" />
        <mxCell id="1" parent="0" />
      </root>
    </mxGraphModel>
  </diagram>
</mxfile>
